<svg xmlns="http://www.w3.org/2000/svg" viewBox="0 0 792 792"><path d="M577.332 287.928v-99.36S577.332 0 396 0C215.244 0 215.244 187.776 215.244 187.776v100.152h36V187.776S251.244 36 396 36s145.332 152.568 145.332 152.568v99.36h36zM108 325.476v429.048c0 20.7 16.02 37.476 36.036 37.476h503.928C667.872 792 684 775.224 684 754.524V325.476c0-20.7-16.02-37.476-36.036-37.476H144.036C124.128 288 108 304.776 108 325.476zM648 324v433.729H144V324h504z"/><path d="M360 574.488v66.672s.108 37.728 36.072 37.728c35.964 0 35.928-37.728 35.928-37.728v-66.672c21.528-13.032 36-37.404 36-65.34 0-41.652-32.22-75.421-72-75.421s-72 33.769-72 75.421c0 27.9 14.472 52.308 36 65.34z"/></svg>