<svg viewBox="0 -11 512 512" xmlns="http://www.w3.org/2000/svg"><path d="M192 213.332c-58.816 0-106.668-47.848-106.668-106.664S133.184 0 192 0s106.668 47.852 106.668 106.668c0 58.816-47.852 106.664-106.668 106.664zM192 32c-41.172 0-74.668 33.492-74.668 74.668 0 41.172 33.496 74.664 74.668 74.664s74.668-33.492 74.668-74.664C266.668 65.492 233.172 32 192 32zm0 0M474.668 490.668H357.332c-20.586 0-37.332-16.746-37.332-37.336v-74.664c0-20.59 16.746-37.336 37.332-37.336h117.336c20.586 0 37.332 16.746 37.332 37.336v74.664c0 20.59-16.746 37.336-37.332 37.336zM357.332 373.332a5.337 5.337 0 0 0-5.332 5.336v74.664a5.337 5.337 0 0 0 5.332 5.336h117.336a5.337 5.337 0 0 0 5.332-5.336v-74.664a5.337 5.337 0 0 0-5.332-5.336zm0 0"/><path d="M453.332 373.332h-74.664c-8.832 0-16-7.168-16-16v-48C362.668 279.937 386.602 256 416 256s53.332 23.937 53.332 53.332v48c0 8.832-7.168 16-16 16zm-58.664-32h42.664v-32c0-11.754-9.578-21.332-21.332-21.332s-21.332 9.578-21.332 21.332zm0 0M266.668 448H16c-8.832 0-16-7.168-16-16v-74.668C0 301.461 45.46 256 101.332 256H288c17.836 0 35.39 4.715 50.754 13.652 7.637 4.438 10.215 14.23 5.781 21.868-4.437 7.66-14.23 10.218-21.89 5.78-10.473-6.077-22.465-9.3-34.645-9.3H101.332C63.105 288 32 319.105 32 357.332V416h234.668c8.832 0 16 7.168 16 16s-7.168 16-16 16zm0 0"/></svg>